<mxfile host="app.diagrams.net" modified="2022-08-07T08:59:10.166Z" agent="5.0 (Windows NT 10.0; Win64; x64) AppleWebKit/537.36 (KHTML, like Gecko) Chrome/99.0.4844.84 Safari/537.36" etag="VyEFpZD0oTyz2g-kstVg" version="20.2.3" type="github">
  <diagram id="1OhR6zsyXj1vjfZ6SuZ5" name="第 1 页">
    <mxGraphModel dx="1209" dy="1910" grid="1" gridSize="10" guides="1" tooltips="1" connect="1" arrows="1" fold="1" page="1" pageScale="1" pageWidth="827" pageHeight="1169" math="0" shadow="0">
      <root>
        <mxCell id="0" />
        <mxCell id="1" parent="0" />
        <mxCell id="NDPCpQq0NMPNnk8Qx3mz-3" value="" style="edgeStyle=orthogonalEdgeStyle;rounded=0;orthogonalLoop=1;jettySize=auto;html=1;" edge="1" parent="1" source="NDPCpQq0NMPNnk8Qx3mz-1" target="NDPCpQq0NMPNnk8Qx3mz-2">
          <mxGeometry relative="1" as="geometry" />
        </mxCell>
        <mxCell id="NDPCpQq0NMPNnk8Qx3mz-1" value="定时任务" style="rounded=0;whiteSpace=wrap;html=1;" vertex="1" parent="1">
          <mxGeometry x="340" y="-614" width="120" height="64" as="geometry" />
        </mxCell>
        <mxCell id="NDPCpQq0NMPNnk8Qx3mz-5" value="" style="edgeStyle=orthogonalEdgeStyle;rounded=0;orthogonalLoop=1;jettySize=auto;html=1;" edge="1" parent="1" source="NDPCpQq0NMPNnk8Qx3mz-2" target="NDPCpQq0NMPNnk8Qx3mz-4">
          <mxGeometry relative="1" as="geometry" />
        </mxCell>
        <mxCell id="NDPCpQq0NMPNnk8Qx3mz-2" value="获取所以的人员" style="rounded=1;whiteSpace=wrap;html=1;" vertex="1" parent="1">
          <mxGeometry x="340" y="-520" width="120" height="60" as="geometry" />
        </mxCell>
        <mxCell id="NDPCpQq0NMPNnk8Qx3mz-4" value="" style="rounded=1;whiteSpace=wrap;html=1;" vertex="1" parent="1">
          <mxGeometry x="340" y="-430" width="120" height="60" as="geometry" />
        </mxCell>
      </root>
    </mxGraphModel>
  </diagram>
</mxfile>
